# rifle_prop — Hollowmark city prop, 1 unit = 1 m, y-up
mtllib rifle_prop.mtl
o rifle_prop
v -0.0175 0.0500 0.4500
v 0.0175 0.0500 0.4500
v 0.0175 0.0850 0.4500
v -0.0175 0.0850 0.4500
v -0.0175 0.0500 -0.2500
v 0.0175 0.0500 -0.2500
v 0.0175 0.0850 -0.2500
v -0.0175 0.0850 -0.2500
v -0.0200 0.0500 -0.2400
v 0.0200 0.0500 -0.2400
v 0.0200 0.1400 -0.2400
v -0.0200 0.1400 -0.2400
v -0.0200 0.0500 -0.4800
v 0.0200 0.0500 -0.4800
v 0.0200 0.1400 -0.4800
v -0.0200 0.1400 -0.4800
v -0.0150 0.0200 -0.0950
v 0.0150 0.0200 -0.0950
v 0.0150 0.0900 -0.0950
v -0.0150 0.0900 -0.0950
v -0.0150 0.0200 -0.1450
v 0.0150 0.0200 -0.1450
v 0.0150 0.0900 -0.1450
v -0.0150 0.0900 -0.1450
v -0.0100 0.0900 0.0700
v 0.0100 0.0900 0.0700
v 0.0100 0.1200 0.0700
v -0.0100 0.1200 0.0700
v -0.0100 0.0900 -0.0300
v 0.0100 0.0900 -0.0300
v 0.0100 0.1200 -0.0300
v -0.0100 0.1200 -0.0300
v -0.0150 0.0200 0.2800
v 0.0150 0.0200 0.2800
v 0.0150 0.0600 0.2800
v -0.0150 0.0600 0.2800
v -0.0150 0.0200 0.1200
v 0.0150 0.0200 0.1200
v 0.0150 0.0600 0.1200
v -0.0150 0.0600 0.1200
vn 0 0 1
vn 0 0 -1
vn 1 0 0
vn -1 0 0
vn 0 1 0
vn 0 -1 0
usemtl 262232
s off
f 1//1 2//1 3//1 4//1
f 6//2 5//2 8//2 7//2
f 2//3 6//3 7//3 3//3
f 5//4 1//4 4//4 8//4
f 4//5 3//5 7//5 8//5
f 5//6 6//6 2//6 1//6
usemtl 5a4030
s off
f 9//1 10//1 11//1 12//1
f 14//2 13//2 16//2 15//2
f 10//3 14//3 15//3 11//3
f 13//4 9//4 12//4 16//4
f 12//5 11//5 15//5 16//5
f 13//6 14//6 10//6 9//6
usemtl 3a3548
s off
f 17//1 18//1 19//1 20//1
f 22//2 21//2 24//2 23//2
f 18//3 22//3 23//3 19//3
f 21//4 17//4 20//4 24//4
f 20//5 19//5 23//5 24//5
f 21//6 22//6 18//6 17//6
f 25//1 26//1 27//1 28//1
f 30//2 29//2 32//2 31//2
f 26//3 30//3 31//3 27//3
f 29//4 25//4 28//4 32//4
f 28//5 27//5 31//5 32//5
f 29//6 30//6 26//6 25//6
usemtl 7d5a3c
s off
f 33//1 34//1 35//1 36//1
f 38//2 37//2 40//2 39//2
f 34//3 38//3 39//3 35//3
f 37//4 33//4 36//4 40//4
f 36//5 35//5 39//5 40//5
f 37//6 38//6 34//6 33//6
