# bus_stop — Hollowmark city prop, 1 unit = 1 m, y-up
mtllib bus_stop.mtl
o bus_stop
v -1.6600 0.0000 -0.5400
v -1.5400 0.0000 -0.5400
v -1.5400 2.4000 -0.5400
v -1.6600 2.4000 -0.5400
v -1.6600 0.0000 -0.6600
v -1.5400 0.0000 -0.6600
v -1.5400 2.4000 -0.6600
v -1.6600 2.4000 -0.6600
v 1.5400 0.0000 -0.5400
v 1.6600 0.0000 -0.5400
v 1.6600 2.4000 -0.5400
v 1.5400 2.4000 -0.5400
v 1.5400 0.0000 -0.6600
v 1.6600 0.0000 -0.6600
v 1.6600 2.4000 -0.6600
v 1.5400 2.4000 -0.6600
v -1.7000 0.0000 -0.6200
v 1.7000 0.0000 -0.6200
v 1.7000 2.4000 -0.6200
v -1.7000 2.4000 -0.6200
v -1.7000 0.0000 -0.7000
v 1.7000 0.0000 -0.7000
v 1.7000 2.4000 -0.7000
v -1.7000 2.4000 -0.7000
v -1.8000 2.4000 0.8000
v 1.8000 2.4000 0.8000
v 1.8000 2.5200 0.8000
v -1.8000 2.5200 0.8000
v -1.8000 2.4000 -0.8000
v 1.8000 2.4000 -0.8000
v 1.8000 2.5200 -0.8000
v -1.8000 2.5200 -0.8000
v -1.5000 0.4400 -0.0800
v 1.5000 0.4400 -0.0800
v 1.5000 0.5400 -0.0800
v -1.5000 0.5400 -0.0800
v -1.5000 0.4400 -0.5200
v 1.5000 0.4400 -0.5200
v 1.5000 0.5400 -0.5200
v -1.5000 0.5400 -0.5200
v -1.2500 0.0000 -0.1000
v -1.1500 0.0000 -0.1000
v -1.1500 0.4400 -0.1000
v -1.2500 0.4400 -0.1000
v -1.2500 0.0000 -0.5000
v -1.1500 0.0000 -0.5000
v -1.1500 0.4400 -0.5000
v -1.2500 0.4400 -0.5000
v -0.0500 0.0000 -0.1000
v 0.0500 0.0000 -0.1000
v 0.0500 0.4400 -0.1000
v -0.0500 0.4400 -0.1000
v -0.0500 0.0000 -0.5000
v 0.0500 0.0000 -0.5000
v 0.0500 0.4400 -0.5000
v -0.0500 0.4400 -0.5000
v 1.1500 0.0000 -0.1000
v 1.2500 0.0000 -0.1000
v 1.2500 0.4400 -0.1000
v 1.1500 0.4400 -0.1000
v 1.1500 0.0000 -0.5000
v 1.2500 0.0000 -0.5000
v 1.2500 0.4400 -0.5000
v 1.1500 0.4400 -0.5000
v 1.8400 0.0000 0.0600
v 1.9600 0.0000 0.0600
v 1.9600 2.6000 0.0600
v 1.8400 2.6000 0.0600
v 1.8400 0.0000 -0.0600
v 1.9600 0.0000 -0.0600
v 1.9600 2.6000 -0.0600
v 1.8400 2.6000 -0.0600
v 1.6000 2.3000 0.0400
v 2.2000 2.3000 0.0400
v 2.2000 2.7400 0.0400
v 1.6000 2.7400 0.0400
v 1.6000 2.3000 -0.0400
v 2.2000 2.3000 -0.0400
v 2.2000 2.7400 -0.0400
v 1.6000 2.7400 -0.0400
v 1.6800 2.3600 0.0800
v 2.1200 2.3600 0.0800
v 2.1200 2.6000 0.0800
v 1.6800 2.6000 0.0800
v 1.6800 2.3600 0.0400
v 2.1200 2.3600 0.0400
v 2.1200 2.6000 0.0400
v 1.6800 2.6000 0.0400
vn 0 0 1
vn 0 0 -1
vn 1 0 0
vn -1 0 0
vn 0 1 0
vn 0 -1 0
usemtl 49596a
s off
f 1//1 2//1 3//1 4//1
f 6//2 5//2 8//2 7//2
f 2//3 6//3 7//3 3//3
f 5//4 1//4 4//4 8//4
f 4//5 3//5 7//5 8//5
f 5//6 6//6 2//6 1//6
f 9//1 10//1 11//1 12//1
f 14//2 13//2 16//2 15//2
f 10//3 14//3 15//3 11//3
f 13//4 9//4 12//4 16//4
f 12//5 11//5 15//5 16//5
f 13//6 14//6 10//6 9//6
f 65//1 66//1 67//1 68//1
f 70//2 69//2 72//2 71//2
f 66//3 70//3 71//3 67//3
f 69//4 65//4 68//4 72//4
f 68//5 67//5 71//5 72//5
f 69//6 70//6 66//6 65//6
usemtl 2e3b46
s off
f 17//1 18//1 19//1 20//1
f 22//2 21//2 24//2 23//2
f 18//3 22//3 23//3 19//3
f 21//4 17//4 20//4 24//4
f 20//5 19//5 23//5 24//5
f 21//6 22//6 18//6 17//6
usemtl 72849a
s off
f 25//1 26//1 27//1 28//1
f 30//2 29//2 32//2 31//2
f 26//3 30//3 31//3 27//3
f 29//4 25//4 28//4 32//4
f 28//5 27//5 31//5 32//5
f 29//6 30//6 26//6 25//6
usemtl 7d5a3c
s off
f 33//1 34//1 35//1 36//1
f 38//2 37//2 40//2 39//2
f 34//3 38//3 39//3 35//3
f 37//4 33//4 36//4 40//4
f 36//5 35//5 39//5 40//5
f 37//6 38//6 34//6 33//6
usemtl 3a3548
s off
f 41//1 42//1 43//1 44//1
f 46//2 45//2 48//2 47//2
f 42//3 46//3 47//3 43//3
f 45//4 41//4 44//4 48//4
f 44//5 43//5 47//5 48//5
f 45//6 46//6 42//6 41//6
f 49//1 50//1 51//1 52//1
f 54//2 53//2 56//2 55//2
f 50//3 54//3 55//3 51//3
f 53//4 49//4 52//4 56//4
f 52//5 51//5 55//5 56//5
f 53//6 54//6 50//6 49//6
f 57//1 58//1 59//1 60//1
f 62//2 61//2 64//2 63//2
f 58//3 62//3 63//3 59//3
f 61//4 57//4 60//4 64//4
f 60//5 59//5 63//5 64//5
f 61//6 62//6 58//6 57//6
usemtl 6b4bb0
s off
f 73//1 74//1 75//1 76//1
f 78//2 77//2 80//2 79//2
f 74//3 78//3 79//3 75//3
f 77//4 73//4 76//4 80//4
f 76//5 75//5 79//5 80//5
f 77//6 78//6 74//6 73//6
usemtl f6e0b0
s off
f 81//1 82//1 83//1 84//1
f 86//2 85//2 88//2 87//2
f 82//3 86//3 87//3 83//3
f 85//4 81//4 84//4 88//4
f 84//5 83//5 87//5 88//5
f 85//6 86//6 82//6 81//6
